<svg width="256" height="256" viewBox="0 0 256 256" fill="none" xmlns="http://www.w3.org/2000/svg">
<path d="M64 202.667C58.342 202.667 52.9158 200.419 48.9151 196.418C44.9143 192.418 42.6667 186.991 42.6667 181.333V138.667L32 128L42.6667 117.333V74.6667C42.6667 69.0088 44.9143 63.5825 48.9151 59.5818C52.9158 55.581 58.342 53.3334 64 53.3334M192 202.667C197.658 202.667 203.084 200.419 207.085 196.418C211.086 192.418 213.333 186.991 213.333 181.333V138.667L224 128L213.333 117.333V74.6667C213.333 69.0088 211.086 63.5825 207.085 59.5818C203.084 55.581 197.658 53.3334 192 53.3334" stroke="#FF5943" stroke-width="12" stroke-linecap="round" stroke-linejoin="round"/>
<path d="M99.875 60.5C90.6219 60.5 83 68.1219 83 77.375V178.625C83 187.878 90.6219 195.5 99.875 195.5H156.125C165.378 195.5 173 187.878 173 178.625V77.375C173 68.1219 165.378 60.5 156.125 60.5H99.875ZM99.875 71.75H156.125C159.247 71.75 161.75 74.2531 161.75 77.375V178.625C161.75 181.747 159.247 184.25 156.125 184.25H99.875C96.7531 184.25 94.25 181.747 94.25 178.625V77.375C94.25 74.2531 96.7531 71.75 99.875 71.75ZM128 167.375C124.906 167.375 122.375 169.906 122.375 173C122.375 176.094 124.906 178.625 128 178.625C131.094 178.625 133.625 176.094 133.625 173C133.625 169.906 131.094 167.375 128 167.375Z" fill="#FF5943"/>
</svg>
