<svg width="256" height="256" viewBox="0 0 256 256" fill="none" xmlns="http://www.w3.org/2000/svg">
<path d="M69.12 94.15L28.5 128L69.12 161.85C69.9505 162.515 70.64 163.339 71.1483 164.273C71.6565 165.208 71.9733 166.234 72.0801 167.292C72.1868 168.351 72.0815 169.42 71.7701 170.437C71.4587 171.454 70.9476 172.399 70.2667 173.216C69.5857 174.034 68.7486 174.707 67.8043 175.197C66.8601 175.687 65.8276 175.983 64.7673 176.069C63.707 176.155 62.6402 176.029 61.6293 175.698C60.6185 175.366 59.6838 174.837 58.88 174.14L10.88 134.14C9.97936 133.389 9.25474 132.45 8.75747 131.388C8.2602 130.326 8.00244 129.168 8.00244 127.995C8.00244 126.822 8.2602 125.664 8.75747 124.602C9.25474 123.54 9.97936 122.601 10.88 121.85L58.88 81.85C60.5111 80.4921 62.6148 79.8378 64.7284 80.0309C66.8419 80.2241 68.7921 81.2489 70.15 82.88C71.508 84.5111 72.1623 86.6148 71.9691 88.7283C71.776 90.8419 70.7511 92.7921 69.12 94.15ZM245.12 121.85L197.12 81.85C196.312 81.1776 195.38 80.6709 194.377 80.3588C193.373 80.0467 192.318 79.9353 191.272 80.0309C190.225 80.1266 189.208 80.4274 188.278 80.9163C187.347 81.4051 186.522 82.0724 185.85 82.88C184.492 84.5111 183.838 86.6148 184.031 88.7283C184.224 90.8419 185.249 92.7921 186.88 94.15L227.5 128L186.88 161.85C186.05 162.515 185.36 163.339 184.852 164.273C184.344 165.208 184.027 166.234 183.92 167.292C183.813 168.351 183.919 169.42 184.23 170.437C184.541 171.454 185.052 172.399 185.733 173.216C186.414 174.034 187.251 174.707 188.196 175.197C189.14 175.687 190.173 175.983 191.233 176.069C192.293 176.155 193.36 176.029 194.371 175.698C195.382 175.366 196.316 174.837 197.12 174.14L245.12 134.14C246.021 133.389 246.745 132.45 247.243 131.388C247.74 130.326 247.998 129.168 247.998 127.995C247.998 126.822 247.74 125.664 247.243 124.602C246.745 123.54 246.021 122.601 245.12 121.85ZM162.73 32.48C161.743 32.1215 160.694 31.961 159.644 32.0077C158.595 32.0543 157.565 32.3073 156.613 32.7521C155.661 33.1969 154.806 33.8248 154.097 34.6C153.388 35.3752 152.839 36.2825 152.48 37.27L88.48 213.27C88.12 214.258 87.9583 215.308 88.0042 216.358C88.0501 217.409 88.3027 218.44 88.7476 219.393C89.1925 220.346 89.821 221.202 90.597 221.912C91.373 222.622 92.2813 223.172 93.27 223.53C94.1463 223.842 95.0698 224.001 96 224C97.643 224 99.246 223.494 100.591 222.551C101.937 221.609 102.959 220.274 103.52 218.73L167.52 42.73C167.879 41.7425 168.039 40.694 167.992 39.6444C167.946 38.5949 167.693 37.5648 167.248 36.6129C166.803 35.6611 166.175 34.8063 165.4 34.0971C164.625 33.388 163.718 32.8385 162.73 32.48Z" fill="#FF5943"/>
</svg>
