<svg width="256" height="256" viewBox="0 0 256 256" fill="none" xmlns="http://www.w3.org/2000/svg">
<path d="M64 202.667C58.342 202.667 52.9158 200.419 48.9151 196.418C44.9143 192.418 42.6667 186.991 42.6667 181.333V138.667L32 128L42.6667 117.333V74.6667C42.6667 69.0088 44.9143 63.5825 48.9151 59.5818C52.9158 55.581 58.342 53.3334 64 53.3334M192 202.667C197.658 202.667 203.084 200.419 207.085 196.418C211.086 192.418 213.333 186.991 213.333 181.333V138.667L224 128L213.333 117.333V74.6667C213.333 69.0088 211.086 63.5825 207.085 59.5818C203.084 55.581 197.658 53.3334 192 53.3334" stroke="#FF5943" stroke-width="12" stroke-linecap="round" stroke-linejoin="round"/>
<rect x="119" y="61" width="56" height="56" rx="10" fill="#FF5943" stroke="#FF5943" stroke-width="4"/>
<rect x="68" y="130" width="36" height="36" rx="6" fill="#FF5943" stroke="#FF5943" stroke-width="4"/>
<rect x="139" y="170" width="16" height="16" rx="2" fill="#FF5943" stroke="#FF5943" stroke-width="4"/>
</svg>
